# xmcd
#
# Track frame offsets:
#	150
#	16230
#	33931
#	50245
#	65086
#	81816
#	99252
#	115719
#	128410
#	141952
#	156968
#	173865
#	190831
#	206436
#	221240
#	238176
#	255533
#	272658
#	289457
#
# Disc length: 4084 seconds
# Revision: 0
# Processed by: cddbd v1.5.2PL0 Copyright (c) Steve Scherf et al.
# Submitted via: dBpowerAMP V12.0
#
DISCID=190ff213
DTITLE=Various Artist - Country Radio September 2006
DYEAR=2006
DGENRE=Country
TTITLE0=Sugarland - Want To
TTITLE1=Kenny Chesney - You Save Me
TTITLE2=Lee Ann Womack - Finding My Way Back Home
TTITLE3=Carrie Underwood - Before He Cheats
TTITLE4=Phil Vassar - The Woman In My Life
TTITLE5=Rushlow Harris - That's So You
TTITLE6=Tim McGraw - My Little Girl
TTITLE7=Vince Gill - The Reason Why
TTITLE8=Toby Keith - Crash Here Tonight
TTITLE9=Montgomery Gentry - Some People Change
TTITLE10=Trracy Byrd - Cheapest Motel
TTITLE11=Craig Morgan - Little Bit OF Life
TTITLE12=Eric Church - Two Oink Lines
TTITLE13=Chris Young - Drinkin Me Lonely
TTITLE14=Tracy Lawrence - Find Out Who Your Friends Are
TTITLE15=Joe Nichols - I'll Wait For You
TTITLE16=Neal McCoy - Tailgate
TTITLE17=Katrina Elam - Love Is
TTITLE18=Keith Anderson - Three Chord Country and American Rock and Roll
EXTD=
EXTT0=
EXTT1=
EXTT2=
EXTT3=
EXTT4=
EXTT5=
EXTT6=
EXTT7=
EXTT8=
EXTT9=
EXTT10=
EXTT11=
EXTT12=
EXTT13=
EXTT14=
EXTT15=
EXTT16=
EXTT17=
EXTT18=
PLAYORDER=
